<svg width="900" height="900" viewBox="0 0 900 900" fill="none" xmlns="http://www.w3.org/2000/svg">
  <rect width="900" height="900" rx="120" fill="url(#bg)"/>
  <g opacity="0.85" filter="url(#blur)">
    <circle cx="672" cy="256" r="120" fill="#D7E8EC"/>
    <circle cx="258" cy="624" r="132" fill="#E8D3B8"/>
  </g>
  <g filter="url(#shadow)">
    <path d="M489.49 191.522C569.271 201.878 629 270.15 629 352.743C629 442.474 556.261 515.213 466.53 515.213C376.799 515.213 304.06 442.474 304.06 352.743C304.06 336.653 306.401 321.11 310.762 306.439" stroke="url(#gold)" stroke-width="30" stroke-linecap="round"/>
    <path d="M351.979 620.998C351.979 553.612 406.608 498.983 473.994 498.983C541.38 498.983 596.009 553.612 596.009 620.998C596.009 688.384 541.38 743.013 473.994 743.013C406.608 743.013 351.979 688.384 351.979 620.998Z" fill="url(#capsule)"/>
    <path d="M473.994 533.519C499.287 565.219 516.256 590.43 524.903 609.151C533.549 627.872 537.199 645.081 537.199 660.778C537.199 695.227 509.27 723.156 474.821 723.156C440.371 723.156 412.442 695.227 412.442 660.778C412.442 645.081 416.092 627.872 424.739 609.151C433.385 590.43 450.354 565.219 475.647 533.519C475.226 533.271 474.675 533.271 473.994 533.519Z" fill="url(#water)"/>
    <path d="M442.56 599.915C424.874 622.799 417.664 641.538 420.93 656.132C424.196 670.725 433.689 679.043 449.409 681.085" stroke="#FFFFFF" stroke-opacity="0.68" stroke-width="13" stroke-linecap="round"/>
    <circle cx="474" cy="621" r="88" fill="url(#highlight)" opacity="0.58"/>
  </g>
  <defs>
    <filter id="shadow" x="244" y="161" width="445" height="642" filterUnits="userSpaceOnUse" color-interpolation-filters="sRGB">
      <feFlood flood-opacity="0" result="BackgroundImageFix"/>
      <feColorMatrix in="SourceAlpha" type="matrix" values="0 0 0 0 0 0 0 0 0 0 0 0 0 0 0 0 0 0 127 0" result="hardAlpha"/>
      <feOffset dy="22"/>
      <feGaussianBlur stdDeviation="22"/>
      <feColorMatrix type="matrix" values="0 0 0 0 0.290196 0 0 0 0 0.223529 0 0 0 0 0.145098 0 0 0 0.12 0"/>
      <feBlend mode="normal" in2="BackgroundImageFix" result="effect1_dropShadow_1_5"/>
      <feBlend mode="normal" in="SourceGraphic" in2="effect1_dropShadow_1_5" result="shape"/>
    </filter>
    <filter id="blur" x="86" y="84" width="706" height="672" filterUnits="userSpaceOnUse" color-interpolation-filters="sRGB">
      <feFlood flood-opacity="0" result="BackgroundImageFix"/>
      <feBlend mode="normal" in="SourceGraphic" in2="BackgroundImageFix" result="shape"/>
      <feGaussianBlur stdDeviation="20" result="effect1_foregroundBlur_1_5"/>
    </filter>
    <linearGradient id="bg" x1="176" y1="126" x2="700" y2="780" gradientUnits="userSpaceOnUse">
      <stop stop-color="#FFFCF8"/>
      <stop offset="1" stop-color="#F0E9DF"/>
    </linearGradient>
    <linearGradient id="gold" x1="358" y1="215" x2="611" y2="445" gradientUnits="userSpaceOnUse">
      <stop stop-color="#C9A06D"/>
      <stop offset="1" stop-color="#8E653A"/>
    </linearGradient>
    <linearGradient id="capsule" x1="394" y1="519" x2="559" y2="728" gradientUnits="userSpaceOnUse">
      <stop stop-color="#FFFDF9"/>
      <stop offset="1" stop-color="#F0ECE6"/>
    </linearGradient>
    <linearGradient id="water" x1="436" y1="552" x2="531" y2="712" gradientUnits="userSpaceOnUse">
      <stop stop-color="#DFF6FB"/>
      <stop offset="1" stop-color="#AFCFD8"/>
    </linearGradient>
    <radialGradient id="highlight" cx="0" cy="0" r="1" gradientUnits="userSpaceOnUse" gradientTransform="translate(460 601) rotate(53.1301) scale(117.413)">
      <stop stop-color="white"/>
      <stop offset="1" stop-color="white" stop-opacity="0"/>
    </radialGradient>
  </defs>
</svg>
